<svg width="142" height="142" viewBox="0 0 142 142" fill="none" xmlns="http://www.w3.org/2000/svg">
<path d="M141.572 64.3831V64.1047C141.446 63.3514 141.039 62.6742 140.433 62.2095C139.828 61.7448 139.069 61.5272 138.309 61.6005C137.55 61.6738 136.846 62.0326 136.341 62.6046C135.835 63.1766 135.565 63.9192 135.584 64.6828V64.9612C135.691 66.096 135.755 67.2522 135.82 68.4085L124.549 68.023C123.975 60.4254 121.788 53.0379 118.134 46.3545L127.928 39.9311C128.327 40.6448 128.705 41.3585 129.062 42.0722C129.228 42.4439 129.468 42.7781 129.766 43.0546C130.065 43.3312 130.416 43.5443 130.799 43.6813C131.183 43.8183 131.589 43.8763 131.995 43.8517C132.401 43.8272 132.798 43.7206 133.162 43.5385C133.526 43.3564 133.849 43.1024 134.113 42.7919C134.376 42.4814 134.574 42.1208 134.694 41.7317C134.814 41.3427 134.855 40.9333 134.813 40.5282C134.771 40.123 134.648 39.7306 134.451 39.3744C132.771 36.0131 130.825 32.7911 128.634 29.7392C128.413 29.3957 128.124 29.1007 127.785 28.8723C127.447 28.6438 127.065 28.4866 126.664 28.4101C126.263 28.3337 125.851 28.3396 125.452 28.4274C125.053 28.5153 124.677 28.6834 124.345 28.9214C124.013 29.1594 123.732 29.4624 123.521 29.8121C123.309 30.1618 123.171 30.5508 123.114 30.9556C123.057 31.3604 123.083 31.7726 123.19 32.1671C123.297 32.5616 123.483 32.9302 123.737 33.2507C124.442 34.2356 125.105 35.2419 125.747 36.2483L115.332 41.8581C111.067 35.6279 105.545 30.3617 99.122 26.399L104.554 15.5005C105.31 15.9573 106.022 16.4283 106.692 16.9136C107.359 17.3566 108.174 17.5163 108.958 17.3577C109.742 17.1991 110.431 16.7351 110.873 16.0679C111.316 15.4006 111.475 14.5848 111.317 13.7997C111.158 13.0147 110.695 12.3248 110.029 11.8819C106.898 9.80601 103.609 7.98038 100.191 6.42196C99.4818 6.20023 98.7155 6.24865 98.0395 6.55792C97.3635 6.8672 96.8254 7.41555 96.5285 8.09772C96.2316 8.7799 96.1967 9.54783 96.4307 10.2541C96.6646 10.9605 97.1509 11.5554 97.7961 11.9247C98.844 12.3958 99.9346 12.9097 100.897 13.445L94.4813 23.851C87.7231 20.5639 80.3487 18.74 72.8392 18.4981L72.1334 6.14361C73.0958 6.14361 74.0581 6.14361 75.0205 6.14361C75.4161 6.17264 75.8136 6.12208 76.1895 5.9949C76.5653 5.86772 76.9119 5.6665 77.2089 5.4031C77.5058 5.1397 77.7471 4.81946 77.9185 4.46123C78.09 4.10301 78.188 3.71405 78.2069 3.31729C78.2537 2.51977 77.9829 1.73619 77.4538 1.1382C76.9247 0.540213 76.1804 0.176582 75.384 0.126965C71.7062 -0.0920577 68.017 -0.0276369 64.3491 0.319665H64.1352C63.3774 0.408594 62.6815 0.781838 62.1877 1.36416C61.6938 1.94649 61.4389 2.6946 61.4741 3.45769C61.5094 4.22079 61.8323 4.94213 62.3777 5.47632C62.9231 6.01051 63.6505 6.31782 64.4132 6.33631H64.9051C65.9102 6.33631 66.9154 6.18644 67.9205 6.1222L67.5355 18.5623C60.0649 19.0467 52.7792 21.0965 46.15 24.579L39.328 14.4941C40.2262 13.9802 41.1458 13.4878 42.0654 13.0381C42.7454 12.6607 43.2535 12.0348 43.4836 11.2913C43.7137 10.5477 43.648 9.74385 43.3003 9.04758C42.9526 8.35131 42.3497 7.81642 41.6175 7.55459C40.8853 7.29276 40.0804 7.32423 39.3708 7.64242C36.0073 9.31761 32.7822 11.2579 29.7259 13.445C29.3828 13.6666 29.0883 13.9556 28.8601 14.2946C28.6319 14.6336 28.4749 15.0155 28.3985 15.4171C28.3221 15.8187 28.328 16.2316 28.4158 16.6308C28.5035 17.0301 28.6714 17.4073 28.9091 17.7396C29.1468 18.072 29.4495 18.3525 29.7988 18.5643C30.148 18.776 30.5366 18.9146 30.9409 18.9715C31.3452 19.0284 31.7569 19.0025 32.1509 18.8953C32.5449 18.7882 32.9131 18.6021 33.2331 18.3482C34.0458 17.7701 34.8584 17.2134 35.6925 16.6781L41.4666 27.3839C35.1642 31.5414 29.8023 36.9754 25.7268 43.3355L15.2051 38.0468C15.7611 37.1047 16.3386 36.1626 16.9373 35.2633C17.1564 34.933 17.3083 34.5626 17.3844 34.1734C17.4605 33.7843 17.4593 33.3839 17.3809 32.9952C17.3024 32.6065 17.1483 32.2371 16.9273 31.908C16.7062 31.579 16.4226 31.2967 16.0926 31.0774C15.7626 30.8581 15.3927 30.706 15.004 30.6298C14.6153 30.5536 14.2155 30.5548 13.8272 30.6333C13.439 30.7119 13.07 30.8662 12.7414 31.0875C12.4127 31.3088 12.1308 31.5928 11.9117 31.9231C9.83715 35.057 8.01368 38.3504 6.45843 41.7725C6.26473 42.136 6.14741 42.5354 6.1137 42.9461C6.07999 43.3568 6.1306 43.77 6.26241 44.1604C6.39423 44.5507 6.60446 44.9099 6.88016 45.2158C7.15586 45.5218 7.4912 45.768 7.86551 45.9393C8.23983 46.1105 8.6452 46.2033 9.05667 46.2118C9.46814 46.2203 9.87699 46.1444 10.258 45.9887C10.6391 45.8331 10.9843 45.6009 11.2724 45.3067C11.5605 45.0124 11.7853 44.6622 11.9331 44.2776C12.3181 43.4212 12.7244 42.5861 13.1521 41.751L23.1178 47.9176C19.6602 54.7098 17.6916 62.1632 17.3437 69.7788L6.13765 70.464C6.13765 69.3506 6.13765 68.3228 6.13765 67.1238C6.13895 66.3537 5.84633 65.6123 5.31966 65.0512C4.79298 64.4901 4.07206 64.1516 3.30438 64.1051C2.5367 64.0586 1.78029 64.3076 1.18989 64.801C0.599495 65.2945 0.219738 65.9952 0.128313 66.7598C0.128313 68.1943 0 69.6503 0 71.0421C0 73.1832 0.106928 75.5599 0.320783 77.7225V77.958C0.395517 78.6923 0.742048 79.372 1.29218 79.8634C1.84231 80.3548 2.55621 80.6222 3.29337 80.613H3.6997C4.49842 80.5162 5.22757 80.1102 5.73115 79.482C6.23473 78.8537 6.47275 78.0531 6.39428 77.2514C6.39428 76.395 6.26596 75.5385 6.20181 74.682L17.3223 75.0032C17.7093 82.7004 19.7518 90.2231 23.3102 97.0571L14.3925 102.902C13.8578 101.939 13.3232 100.975 12.8313 99.9905C12.445 99.3318 11.8236 98.8443 11.0925 98.6261C10.3613 98.4079 9.57472 98.4753 8.89125 98.8148C8.20778 99.1542 7.67823 99.7404 7.40932 100.455C7.14042 101.17 7.15216 101.96 7.44217 102.667C9.11564 106.034 11.0536 109.263 13.2376 112.324C13.459 112.667 13.7477 112.962 14.0863 113.19C14.4249 113.419 14.8063 113.576 15.2074 113.653C15.6085 113.729 16.0209 113.723 16.4196 113.635C16.8184 113.547 17.1952 113.379 17.5271 113.141C17.8591 112.903 18.1393 112.6 18.3508 112.251C18.5622 111.901 18.7006 111.512 18.7574 111.107C18.8143 110.702 18.7884 110.29 18.6814 109.896C18.5744 109.501 18.3885 109.132 18.1349 108.812C17.6359 108.07 17.1369 107.32 16.638 106.564L25.962 101.532C30.1905 108.042 35.7705 113.563 42.322 117.719L37.7455 126.862C36.8473 126.327 35.9491 125.77 35.0723 125.192C34.4259 124.91 33.7012 124.863 33.0241 125.061C32.3471 125.258 31.7605 125.687 31.3664 126.272C30.9723 126.858 30.7957 127.563 30.8671 128.265C30.9386 128.968 31.2536 129.623 31.7575 130.117C34.8875 132.2 38.1768 134.033 41.5949 135.598C42.3114 135.874 43.1061 135.866 43.8169 135.576C44.5277 135.285 45.1012 134.734 45.4203 134.035C45.7394 133.336 45.7802 132.542 45.5343 131.813C45.2884 131.085 44.7743 130.478 44.097 130.117C43.2202 129.71 42.3648 129.303 41.5093 128.853L46.8557 120.289C53.8203 123.809 61.47 125.76 69.2678 126.006L69.8666 136.048C68.8828 136.048 67.8777 136.048 66.9154 135.941C66.5247 135.908 66.1316 135.954 65.7586 136.074C65.3856 136.195 65.0401 136.388 64.742 136.643C64.4439 136.897 64.199 137.209 64.0214 137.559C63.8439 137.908 63.7372 138.29 63.7075 138.681C63.6607 139.479 63.9315 140.262 64.4606 140.86C64.9898 141.458 65.734 141.822 66.5304 141.872C67.9846 141.872 69.225 142 70.6792 142C72.8178 142 74.6569 141.786 77.0949 141.615C77.5872 141.65 78.081 141.57 78.5367 141.38C78.9925 141.19 79.3976 140.896 79.7196 140.522C80.0417 140.147 80.2719 139.702 80.3917 139.223C80.5115 138.744 80.5176 138.243 80.4096 137.761C80.3811 137.384 80.2726 137.018 80.0914 136.686C79.9102 136.355 79.6604 136.066 79.3588 135.839C79.0572 135.612 78.7106 135.452 78.3424 135.37C77.9741 135.288 77.5925 135.285 77.2232 135.362C77.2232 135.362 75.0846 135.769 74.0581 135.812L74.4217 125.834C82.2076 125.342 89.7915 123.149 96.6413 119.411L102.266 127.975C101.453 128.425 100.64 128.853 99.8063 129.26C99.0888 129.615 98.5416 130.241 98.2849 131C98.0282 131.759 98.0832 132.589 98.4376 133.307C98.7921 134.025 99.4171 134.573 100.175 134.83C100.933 135.087 101.762 135.032 102.48 134.677C105.843 133.01 109.068 131.076 112.124 128.896C112.731 128.415 113.13 127.718 113.238 126.95C113.346 126.182 113.154 125.402 112.703 124.772C112.253 124.142 111.577 123.709 110.816 123.564C110.055 123.419 109.268 123.573 108.617 123.993C107.74 124.614 106.842 125.213 105.923 125.813L101.068 116.799C107.529 112.463 112.979 106.78 117.043 100.14L126.517 104.872C126.061 105.629 125.59 106.343 125.105 107.013C124.851 107.341 124.666 107.718 124.563 108.12C124.46 108.522 124.441 108.941 124.508 109.351C124.574 109.761 124.724 110.153 124.948 110.502C125.173 110.851 125.467 111.15 125.812 111.381C126.157 111.611 126.545 111.768 126.954 111.841C127.362 111.914 127.781 111.902 128.184 111.805C128.588 111.709 128.967 111.53 129.298 111.28C129.629 111.031 129.906 110.715 130.11 110.354C132.189 107.227 134.02 103.94 135.584 100.526C135.75 100.16 135.842 99.7656 135.856 99.3644C135.869 98.9632 135.803 98.5633 135.662 98.1875C135.521 97.8118 135.308 97.4675 135.034 97.1743C134.76 96.8812 134.431 96.6449 134.066 96.479C133.701 96.3131 133.307 96.2208 132.906 96.2074C132.505 96.1941 132.106 96.2598 131.731 96.401C131.355 96.5422 131.011 96.756 130.719 97.0302C130.426 97.3044 130.19 97.6337 130.024 97.9992C129.554 99.027 129.04 100.14 128.506 101.061L119.438 95.4512C122.768 88.5081 124.563 80.9271 124.699 73.226L135.841 72.5623C135.841 73.4402 135.841 74.318 135.841 75.1745C135.815 75.5711 135.867 75.969 135.995 76.3454C136.123 76.7217 136.324 77.069 136.586 77.3674C136.848 77.6658 137.167 77.9094 137.524 78.0843C137.88 78.2591 138.268 78.3617 138.664 78.3862H138.856C139.62 78.3824 140.354 78.0885 140.91 77.5639C141.465 77.0393 141.802 76.3231 141.85 75.5599C141.85 74.0825 142 72.5837 142 71.0849C141.914 68.9223 141.786 66.6527 141.572 64.3831Z" fill="black"/>
<path d="M82.7835 63.5141H92.612C92.3103 60.8581 91.5774 58.502 90.4135 56.4458C89.2496 54.3896 87.7624 52.676 85.9519 51.3052C84.1845 49.8916 82.1584 48.8206 79.8737 48.0924C77.6321 47.3641 75.2396 47 72.6962 47C69.1614 47 65.9714 47.6212 63.1263 48.8635C60.3243 50.1058 57.9534 51.8193 56.0135 54.004C54.0737 56.1888 52.5865 58.759 51.5519 61.7149C50.5173 64.6278 50 67.7979 50 71.2249C50 74.5663 50.5173 77.6934 51.5519 80.6064C52.5865 83.4766 54.0737 85.9826 56.0135 88.1245C57.9534 90.2664 60.3243 91.9585 63.1263 93.2008C65.9714 94.4003 69.1614 95 72.6962 95C75.5414 95 78.1494 94.5716 80.5203 93.7149C82.8912 92.8581 84.9604 91.6158 86.7278 89.988C88.4952 88.3601 89.9178 86.3896 90.9955 84.0763C92.0732 81.7631 92.7414 79.1714 93 76.3012H83.1714C82.7835 79.3855 81.7058 81.8701 79.9383 83.755C78.214 85.6399 75.8 86.5823 72.6962 86.5823C70.4115 86.5823 68.4717 86.154 66.8767 85.2972C65.2817 84.3976 63.9885 83.2195 62.997 81.7631C62.0055 80.3066 61.2727 78.6787 60.7985 76.8795C60.3674 75.0375 60.1519 73.1526 60.1519 71.2249C60.1519 69.2115 60.3674 67.2624 60.7985 65.3775C61.2727 63.4926 62.0055 61.822 62.997 60.3655C63.9885 58.8661 65.2817 57.6881 66.8767 56.8313C68.4717 55.9317 70.4115 55.4819 72.6962 55.4819C73.9464 55.4819 75.1318 55.6961 76.2526 56.1245C77.4165 56.51 78.4511 57.0669 79.3564 57.7952C80.2617 58.5234 81.016 59.3802 81.6195 60.3655C82.2231 61.3079 82.611 62.3574 82.7835 63.5141Z" fill="white"/>
</svg>
